<?xml version="1.0" encoding="UTF-8" standalone="no"?>
<!-- Created with Inkscape (http://www.inkscape.org/) -->

<svg
   xmlns:dc="http://purl.org/dc/elements/1.1/"
   xmlns:cc="http://creativecommons.org/ns#"
   xmlns:rdf="http://www.w3.org/1999/02/22-rdf-syntax-ns#"
   xmlns:svg="http://www.w3.org/2000/svg"
   xmlns="http://www.w3.org/2000/svg"
   version="1.1"
   width="640"
   height="640"
   id="svg3004">
  <metadata
     id="metadata3296">
    <rdf:RDF>
      <cc:Work
         rdf:about="">
        <dc:format>image/svg+xml</dc:format>
        <dc:type
           rdf:resource="http://purl.org/dc/dcmitype/StillImage" />
        <dc:title></dc:title>
      </cc:Work>
    </rdf:RDF>
  </metadata>
  <defs
     id="defs3006" />
  <g
     id="mario">
    <title
       id="title3443">mario</title>
    <rect
       width="40"
       height="40"
       x="200"
       y="0"
       id="rect3008"
       style="fill:#eb131b" />
    <rect
       width="40"
       height="40"
       x="240"
       y="0"
       id="rect3010"
       style="fill:#ec1c25" />
    <rect
       width="40"
       height="40"
       x="280"
       y="0"
       id="rect3012"
       style="fill:#ec1c25" />
    <rect
       width="40"
       height="40"
       x="320"
       y="0"
       id="rect3014"
       style="fill:#ea1c23" />
    <rect
       width="40"
       height="40"
       x="360"
       y="0"
       id="rect3016"
       style="fill:#ed2830" />
    <rect
       width="40"
       height="40"
       x="160"
       y="40"
       id="rect3018"
       style="fill:#e30910" />
    <rect
       width="40"
       height="40"
       x="200"
       y="40"
       id="rect3020"
       style="fill:#e61c23" />
    <rect
       width="40"
       height="40"
       x="240"
       y="40"
       id="rect3022"
       style="fill:#e61b23" />
    <rect
       width="40"
       height="40"
       x="280"
       y="40"
       id="rect3024"
       style="fill:#ed2223" />
    <rect
       width="40"
       height="40"
       x="320"
       y="40"
       id="rect3026"
       style="fill:#eb2324" />
    <rect
       width="40"
       height="40"
       x="360"
       y="40"
       id="rect3028"
       style="fill:#e31a22" />
    <rect
       width="40"
       height="40"
       x="400"
       y="40"
       id="rect3030"
       style="fill:#ed191b" />
    <rect
       width="40"
       height="40"
       x="440"
       y="40"
       id="rect3032"
       style="fill:#ed1c24" />
    <rect
       width="40"
       height="40"
       x="480"
       y="40"
       id="rect3034"
       style="fill:#eb2129" />
    <rect
       width="40"
       height="40"
       x="160"
       y="80"
       id="rect3036"
       style="fill:#3a1100" />
    <rect
       width="40"
       height="40"
       x="200"
       y="80"
       id="rect3038"
       style="fill:#4a2203" />
    <rect
       width="40"
       height="40"
       x="240"
       y="80"
       id="rect3040"
       style="fill:#411a02" />
    <rect
       width="40"
       height="40"
       x="280"
       y="80"
       id="rect3042"
       style="fill:#f3b30f" />
    <rect
       width="40"
       height="40"
       x="320"
       y="80"
       id="rect3044"
       style="fill:#f4b711" />
    <rect
       width="40"
       height="40"
       x="360"
       y="80"
       id="rect3046"
       style="fill:#120b0b" />
    <rect
       width="40"
       height="40"
       x="400"
       y="80"
       id="rect3048"
       style="fill:#fbb90d" />
    <rect
       width="40"
       height="40"
       x="120"
       y="120"
       id="rect3050"
       style="fill:#4c301f" />
    <rect
       width="40"
       height="40"
       x="160"
       y="120"
       id="rect3052"
       style="fill:#f4bb0f" />
    <rect
       width="40"
       height="40"
       x="200"
       y="120"
       id="rect3054"
       style="fill:#462302" />
    <rect
       width="40"
       height="40"
       x="240"
       y="120"
       id="rect3056"
       style="fill:#fdc10f" />
    <rect
       width="40"
       height="40"
       x="280"
       y="120"
       id="rect3058"
       style="fill:#fec20f" />
    <rect
       width="40"
       height="40"
       x="320"
       y="120"
       id="rect3060"
       style="fill:#f4bc0f" />
    <rect
       width="40"
       height="40"
       x="360"
       y="120"
       id="rect3062"
       style="fill:#00000a" />
    <rect
       width="40"
       height="40"
       x="400"
       y="120"
       id="rect3064"
       style="fill:#ffcd10" />
    <rect
       width="40"
       height="40"
       x="440"
       y="120"
       id="rect3066"
       style="fill:#fec51b" />
    <rect
       width="40"
       height="40"
       x="480"
       y="120"
       id="rect3068"
       style="fill:#f9c520" />
    <rect
       width="40"
       height="40"
       x="120"
       y="160"
       id="rect3070"
       style="fill:#482b1d" />
    <rect
       width="40"
       height="40"
       x="160"
       y="160"
       id="rect3072"
       style="fill:#f5bc0e" />
    <rect
       width="40"
       height="40"
       x="200"
       y="160"
       id="rect3074"
       style="fill:#442202" />
    <rect
       width="40"
       height="40"
       x="240"
       y="160"
       id="rect3076"
       style="fill:#3e1e03" />
    <rect
       width="40"
       height="40"
       x="280"
       y="160"
       id="rect3078"
       style="fill:#f0b810" />
    <rect
       width="40"
       height="40"
       x="320"
       y="160"
       id="rect3080"
       style="fill:#f8be0e" />
    <rect
       width="40"
       height="40"
       x="360"
       y="160"
       id="rect3082"
       style="fill:#f4bb0f" />
    <rect
       width="40"
       height="40"
       x="400"
       y="160"
       id="rect3084"
       style="fill:#00020a" />
    <rect
       width="40"
       height="40"
       x="440"
       y="160"
       id="rect3086"
       style="fill:#e3b00f" />
    <rect
       width="40"
       height="40"
       x="480"
       y="160"
       id="rect3088"
       style="fill:#f0b90e" />
    <rect
       width="40"
       height="40"
       x="520"
       y="160"
       id="rect3090"
       style="fill:#fcc31c" />
    <rect
       width="40"
       height="40"
       x="160"
       y="200"
       id="rect3092"
       style="fill:#432103" />
    <rect
       width="40"
       height="40"
       x="200"
       y="200"
       id="rect3094"
       style="fill:#ffd110" />
    <rect
       width="40"
       height="40"
       x="240"
       y="200"
       id="rect3096"
       style="fill:#ffc910" />
    <rect
       width="40"
       height="40"
       x="280"
       y="200"
       id="rect3098"
       style="fill:#ffc20f" />
    <rect
       width="40"
       height="40"
       x="320"
       y="200"
       id="rect3100"
       style="fill:#f5bd10" />
    <rect
       width="40"
       height="40"
       x="360"
       y="200"
       id="rect3102"
       style="fill:#00010a" />
    <rect
       width="40"
       height="40"
       x="400"
       y="200"
       id="rect3104"
       style="fill:#16130a" />
    <rect
       width="40"
       height="40"
       x="440"
       y="200"
       id="rect3106"
       style="fill:#0b0e15" />
    <rect
       width="40"
       height="40"
       x="480"
       y="200"
       id="rect3108"
       style="fill:#10131b" />
    <rect
       width="40"
       height="40"
       x="200"
       y="240"
       id="rect3110"
       style="fill:#ffc303" />
    <rect
       width="40"
       height="40"
       x="240"
       y="240"
       id="rect3112"
       style="fill:#ffc60a" />
    <rect
       width="40"
       height="40"
       x="280"
       y="240"
       id="rect3114"
       style="fill:#ffc60f" />
    <rect
       width="40"
       height="40"
       x="320"
       y="240"
       id="rect3116"
       style="fill:#fcc50f" />
    <rect
       width="40"
       height="40"
       x="360"
       y="240"
       id="rect3118"
       style="fill:#fec20a" />
    <rect
       width="40"
       height="40"
       x="400"
       y="240"
       id="rect3120"
       style="fill:#fac10b" />
    <rect
       width="40"
       height="40"
       x="160"
       y="280"
       id="rect3122"
       style="fill:#ec1e25" />
    <rect
       width="40"
       height="40"
       x="200"
       y="280"
       id="rect3124"
       style="fill:#e4242c" />
    <rect
       width="40"
       height="40"
       x="240"
       y="280"
       id="rect3126"
       style="fill:#120df0" />
    <rect
       width="40"
       height="40"
       x="280"
       y="280"
       id="rect3128"
       style="fill:#e2242f" />
    <rect
       width="40"
       height="40"
       x="320"
       y="280"
       id="rect3130"
       style="fill:#e7272a" />
    <rect
       width="40"
       height="40"
       x="360"
       y="280"
       id="rect3132"
       style="fill:#120def" />
    <rect
       width="40"
       height="40"
       x="400"
       y="280"
       id="rect3134"
       style="fill:#eb2526" />
    <rect
       width="40"
       height="40"
       x="440"
       y="280"
       id="rect3136"
       style="fill:#ee1922" />
    <rect
       width="40"
       height="40"
       x="120"
       y="320"
       id="rect3138"
       style="fill:#ec2029" />
    <rect
       width="40"
       height="40"
       x="160"
       y="320"
       id="rect3140"
       style="fill:#e91b25" />
    <rect
       width="40"
       height="40"
       x="200"
       y="320"
       id="rect3142"
       style="fill:#e01c2f" />
    <rect
       width="40"
       height="40"
       x="240"
       y="320"
       id="rect3144"
       style="fill:#0102fa" />
    <rect
       width="40"
       height="40"
       x="280"
       y="320"
       id="rect3146"
       style="fill:#db1b38" />
    <rect
       width="40"
       height="40"
       x="320"
       y="320"
       id="rect3148"
       style="fill:#e01a31" />
    <rect
       width="40"
       height="40"
       x="360"
       y="320"
       id="rect3150"
       style="fill:#0202f9" />
    <rect
       width="40"
       height="40"
       x="400"
       y="320"
       id="rect3152"
       style="fill:#e81d28" />
    <rect
       width="40"
       height="40"
       x="440"
       y="320"
       id="rect3154"
       style="fill:#eb1d26" />
    <rect
       width="40"
       height="40"
       x="480"
       y="320"
       id="rect3156"
       style="fill:#e8181f" />
    <rect
       width="40"
       height="40"
       x="80"
       y="360"
       id="rect3158"
       style="fill:#ed201f" />
    <rect
       width="40"
       height="40"
       x="120"
       y="360"
       id="rect3160"
       style="fill:#ed2522" />
    <rect
       width="40"
       height="40"
       x="160"
       y="360"
       id="rect3162"
       style="fill:#ea1d26" />
    <rect
       width="40"
       height="40"
       x="200"
       y="360"
       id="rect3164"
       style="fill:#d71939" />
    <rect
       width="40"
       height="40"
       x="240"
       y="360"
       id="rect3166"
       style="fill:#140fec" />
    <rect
       width="40"
       height="40"
       x="280"
       y="360"
       id="rect3168"
       style="fill:#0000ff" />
    <rect
       width="40"
       height="40"
       x="320"
       y="360"
       id="rect3170"
       style="fill:#0001ff" />
    <rect
       width="40"
       height="40"
       x="360"
       y="360"
       id="rect3172"
       style="fill:#1c10e5" />
    <rect
       width="40"
       height="40"
       x="400"
       y="360"
       id="rect3174"
       style="fill:#de1933" />
    <rect
       width="40"
       height="40"
       x="440"
       y="360"
       id="rect3176"
       style="fill:#ec1b25" />
    <rect
       width="40"
       height="40"
       x="480"
       y="360"
       id="rect3178"
       style="fill:#ec2624" />
    <rect
       width="40"
       height="40"
       x="520"
       y="360"
       id="rect3180"
       style="fill:#ee2525" />
    <rect
       width="40"
       height="40"
       x="80"
       y="400"
       id="rect3182"
       style="fill:#ffc217" />
    <rect
       width="40"
       height="40"
       x="120"
       y="400"
       id="rect3184"
       style="fill:#ffcc0f" />
    <rect
       width="40"
       height="40"
       x="160"
       y="400"
       id="rect3186"
       style="fill:#e3112e" />
    <rect
       width="40"
       height="40"
       x="200"
       y="400"
       id="rect3188"
       style="fill:#050bf9" />
    <rect
       width="40"
       height="40"
       x="240"
       y="400"
       id="rect3190"
       style="fill:#fef103" />
    <rect
       width="40"
       height="40"
       x="280"
       y="400"
       id="rect3192"
       style="fill:#1010f0" />
    <rect
       width="40"
       height="40"
       x="320"
       y="400"
       id="rect3194"
       style="fill:#0c0bf5" />
    <rect
       width="40"
       height="40"
       x="360"
       y="400"
       id="rect3196"
       style="fill:#fef103" />
    <rect
       width="40"
       height="40"
       x="400"
       y="400"
       id="rect3198"
       style="fill:#0403fb" />
    <rect
       width="40"
       height="40"
       x="440"
       y="400"
       id="rect3200"
       style="fill:#df0d33" />
    <rect
       width="40"
       height="40"
       x="480"
       y="400"
       id="rect3202"
       style="fill:#fac20e" />
    <rect
       width="40"
       height="40"
       x="520"
       y="400"
       id="rect3204"
       style="fill:#fec31d" />
    <rect
       width="40"
       height="40"
       x="80"
       y="440"
       id="rect3206"
       style="fill:#fec417" />
    <rect
       width="40"
       height="40"
       x="120"
       y="440"
       id="rect3208"
       style="fill:#fcc110" />
    <rect
       width="40"
       height="40"
       x="160"
       y="440"
       id="rect3210"
       style="fill:#ffbd0a" />
    <rect
       width="40"
       height="40"
       x="200"
       y="440"
       id="rect3212"
       style="fill:#0000ff" />
    <rect
       width="40"
       height="40"
       x="240"
       y="440"
       id="rect3214"
       style="fill:#1110ef" />
    <rect
       width="40"
       height="40"
       x="280"
       y="440"
       id="rect3216"
       style="fill:#0102fb" />
    <rect
       width="40"
       height="40"
       x="320"
       y="440"
       id="rect3218"
       style="fill:#0203f9" />
    <rect
       width="40"
       height="40"
       x="360"
       y="440"
       id="rect3220"
       style="fill:#1110ef" />
    <rect
       width="40"
       height="40"
       x="400"
       y="440"
       id="rect3222"
       style="fill:#0000ff" />
    <rect
       width="40"
       height="40"
       x="440"
       y="440"
       id="rect3224"
       style="fill:#ffbb0e" />
    <rect
       width="40"
       height="40"
       x="480"
       y="440"
       id="rect3226"
       style="fill:#fac010" />
    <rect
       width="40"
       height="40"
       x="520"
       y="440"
       id="rect3228"
       style="fill:#fec51d" />
    <rect
       width="40"
       height="40"
       x="80"
       y="480"
       id="rect3230"
       style="fill:#fac41c" />
    <rect
       width="40"
       height="40"
       x="120"
       y="480"
       id="rect3232"
       style="fill:#ffd101" />
    <rect
       width="40"
       height="40"
       x="160"
       y="480"
       id="rect3234"
       style="fill:#0000ff" />
    <rect
       width="40"
       height="40"
       x="200"
       y="480"
       id="rect3236"
       style="fill:#0002fa" />
    <rect
       width="40"
       height="40"
       x="240"
       y="480"
       id="rect3238"
       style="fill:#0002fb" />
    <rect
       width="40"
       height="40"
       x="280"
       y="480"
       id="rect3240"
       style="fill:#0607f9" />
    <rect
       width="40"
       height="40"
       x="320"
       y="480"
       id="rect3242"
       style="fill:#0807f6" />
    <rect
       width="40"
       height="40"
       x="360"
       y="480"
       id="rect3244"
       style="fill:#0002fa" />
    <rect
       width="40"
       height="40"
       x="400"
       y="480"
       id="rect3246"
       style="fill:#0002fb" />
    <rect
       width="40"
       height="40"
       x="440"
       y="480"
       id="rect3248"
       style="fill:#0000ff" />
    <rect
       width="40"
       height="40"
       x="480"
       y="480"
       id="rect3250"
       style="fill:#fcc411" />
    <rect
       width="40"
       height="40"
       x="520"
       y="480"
       id="rect3252"
       style="fill:#fac622" />
    <rect
       width="40"
       height="40"
       x="160"
       y="520"
       id="rect3254"
       style="fill:#0000eb" />
    <rect
       width="40"
       height="40"
       x="200"
       y="520"
       id="rect3256"
       style="fill:#0503f0" />
    <rect
       width="40"
       height="40"
       x="240"
       y="520"
       id="rect3258"
       style="fill:#0909fd" />
    <rect
       width="40"
       height="40"
       x="360"
       y="520"
       id="rect3260"
       style="fill:#0101fc" />
    <rect
       width="40"
       height="40"
       x="400"
       y="520"
       id="rect3262"
       style="fill:#0503f0" />
    <rect
       width="40"
       height="40"
       x="440"
       y="520"
       id="rect3264"
       style="fill:#0000ee" />
    <rect
       width="40"
       height="40"
       x="120"
       y="560"
       id="rect3266"
       style="fill:#502f12" />
    <rect
       width="40"
       height="40"
       x="160"
       y="560"
       id="rect3268"
       style="fill:#442102" />
    <rect
       width="40"
       height="40"
       x="200"
       y="560"
       id="rect3270"
       style="fill:#4e2c0f" />
    <rect
       width="40"
       height="40"
       x="400"
       y="560"
       id="rect3272"
       style="fill:#472506" />
    <rect
       width="40"
       height="40"
       x="440"
       y="560"
       id="rect3274"
       style="fill:#452203" />
    <rect
       width="40"
       height="40"
       x="480"
       y="560"
       id="rect3276"
       style="fill:#482709" />
    <rect
       width="40"
       height="40"
       x="80"
       y="600"
       id="rect3278"
       style="fill:#56361a" />
    <rect
       width="40"
       height="40"
       x="120"
       y="600"
       id="rect3280"
       style="fill:#452303" />
    <rect
       width="40"
       height="40"
       x="160"
       y="600"
       id="rect3282"
       style="fill:#452202" />
    <rect
       width="40"
       height="40"
       x="200"
       y="600"
       id="rect3284"
       style="fill:#4e2c0e" />
    <rect
       width="40"
       height="40"
       x="400"
       y="600"
       id="rect3286"
       style="fill:#472505" />
    <rect
       width="40"
       height="40"
       x="440"
       y="600"
       id="rect3288"
       style="fill:#452202" />
    <rect
       width="40"
       height="40"
       x="480"
       y="600"
       id="rect3290"
       style="fill:#442101" />
    <rect
       width="40"
       height="40"
       x="520"
       y="600"
       id="rect3292"
       style="fill:#5a3c21" />
  </g>
</svg>
